<?xml version="1.0" encoding="utf-8"?>
<!-- Generator: Adobe Illustrator 15.0.0, SVG Export Plug-In . SVG Version: 6.00 Build 0)  -->
<!DOCTYPE svg PUBLIC "-//W3C//DTD SVG 1.1//EN" "http://www.w3.org/Graphics/SVG/1.1/DTD/svg11.dtd">
<svg version="1.1" id="Layer_1" xmlns="http://www.w3.org/2000/svg" xmlns:xlink="http://www.w3.org/1999/xlink" x="0px" y="0px"
	 width="599.97px" height="131.993px" viewBox="0 0 599.97 131.993" enable-background="new 0 0 599.97 131.993"
	 xml:space="preserve">
<g>
	<path d="M25.723,86.633h16.721v29.416c0,3.511-1.214,6.503-3.638,8.979c-2.426,2.477-5.341,3.716-8.748,3.716h-13.16
		c-3.406,0-6.324-1.239-8.748-3.716c-2.426-2.477-3.638-5.469-3.638-8.979V18.046c0-3.406,1.212-6.348,3.638-8.825
		c2.424-2.477,5.341-3.716,8.748-3.716h13.16c3.406,0,6.321,1.239,8.748,3.716c2.424,2.477,3.638,5.419,3.638,8.825v29.881H25.568
		v-26.01c0-1.548-0.774-2.322-2.322-2.322c-1.447,0-2.167,0.774-2.167,2.322v90.261c0,1.549,0.774,2.322,2.322,2.322
		s2.322-0.773,2.322-2.322V86.633z M63.655,5.506v106.672c0,1.549,0.774,2.322,2.322,2.322c1.548,0,2.322-0.773,2.322-2.322V5.506
		H85.02v110.543c0,3.511-1.188,6.503-3.561,8.979c-2.375,2.477-5.264,3.716-8.67,3.716H59.475c-3.406,0-6.324-1.239-8.748-3.716
		c-2.426-2.477-3.638-5.469-3.638-8.979V5.506H63.655z M111.649,19.75h5.418V5.506H89.819V19.75h5.109v108.995h16.721V19.75z
		 M143.542,128.744V114.5h-5.109V5.506h-16.721v123.238H143.542z M148.187,128.744h21.675V114.5h-4.799V74.247h4.799V60.004h-4.799
		V19.75h4.799V5.506h-21.675V128.744z M212.438,78.582v50.162h-16.721V76.569c0-1.548-0.774-2.322-2.323-2.322h-2.167v54.497
		h-16.721l0.155-123.238h25.701c3.406,0,6.294,1.239,8.67,3.716c2.373,2.477,3.561,5.419,3.561,8.825v37.467
		c0,5.472-2.375,9.342-7.122,11.611C210.116,69.293,212.438,73.112,212.438,78.582z M195.718,57.682V21.917
		c0-1.444-0.724-2.167-2.168-2.167h-2.477v40.254h2.477C194.994,60.004,195.718,59.229,195.718,57.682z M242.783,5.506
		l-7.276,123.238h16.875l1.703-27.867h7.122l1.858,27.867h16.721L272.509,5.506H242.783z M260.588,86.633h-5.729l2.632-66.883
		L260.588,86.633z M320.658,128.744V5.506h-16.565V54.12l-4.954-48.614h-16.566v123.238h16.721V79.666l4.8,49.078H320.658z
		 M351.004,128.744c3.406,0,6.321-1.239,8.747-3.716c2.424-2.477,3.639-5.469,3.639-8.979V18.046c0-3.507-1.215-6.476-3.639-8.902
		c-2.426-2.424-5.341-3.639-8.747-3.639h-25.546v123.238H351.004z M342.024,19.75h2.477c1.549,0,2.322,0.774,2.322,2.322v90.106
		c0,1.549-0.827,2.322-2.477,2.322h-2.322V19.75z M405.036,114.346c-1.548,0-2.322-0.773-2.322-2.322V21.917
		c0-1.548,0.774-2.322,2.322-2.322c1.549,0,2.323,0.774,2.323,2.322v26.01h16.875V18.046c0-3.507-1.214-6.502-3.639-8.979
		c-2.426-2.477-5.341-3.716-8.747-3.716h-13.314c-3.406,0-6.297,1.239-8.67,3.716c-2.376,2.477-3.562,5.472-3.562,8.979v98.002
		c0,3.511,1.186,6.503,3.562,8.979c2.373,2.477,5.264,3.716,8.67,3.716h13.314c3.406,0,6.321-1.239,8.747-3.716
		c2.425-2.477,3.639-5.469,3.639-8.979V60.004h-19.198v14.243h2.323v37.776C407.359,113.572,406.585,114.346,405.036,114.346z
		 M466.811,78.582v50.162h-16.876V76.569c0-1.548-0.723-2.322-2.167-2.322h-2.322v54.497h-16.566V5.351h25.7
		c3.406,0,6.321,1.239,8.748,3.716c2.424,2.477,3.638,5.472,3.638,8.979v37.467c0,5.472-2.426,9.289-7.276,11.457
		C464.435,69.242,466.811,73.112,466.811,78.582z M450.09,57.682V21.917c0-1.444-0.724-2.167-2.168-2.167h-2.477v40.254h2.322
		C449.315,60.004,450.09,59.229,450.09,57.682z M509.387,18.046c0-3.507-1.215-6.476-3.639-8.902
		c-2.426-2.424-5.341-3.639-8.747-3.639h-13.16c-3.406,0-6.323,1.214-8.747,3.639c-2.427,2.426-3.639,5.395-3.639,8.902v98.002
		c0,3.511,1.212,6.503,3.639,8.979c2.424,2.477,5.341,3.716,8.747,3.716h13.16c3.406,0,6.321-1.239,8.747-3.716
		c2.424-2.477,3.639-5.469,3.639-8.979V18.046z M488.176,22.072c0-1.548,0.774-2.322,2.322-2.322c1.549,0,2.322,0.774,2.322,2.322
		v89.952c0,1.549-0.773,2.322-2.322,2.322c-1.548,0-2.322-0.773-2.322-2.322V22.072z M544.686,62.635l-10.218-6.656
		c-2.271-1.445-3.406-3.354-3.406-5.729V22.072c0-1.548,0.774-2.322,2.322-2.322s2.322,0.774,2.322,2.322v25.391h16.566
		l0.154-29.417c0-3.507-1.214-6.502-3.638-8.979c-2.427-2.477-5.396-3.716-8.902-3.716h-13.315c-3.51,0-6.478,1.239-8.902,3.716
		c-2.426,2.477-3.638,5.472-3.638,8.979l0.154,35.609c0,5.782,2.478,10.374,7.432,13.779l10.528,6.968
		c2.167,1.445,3.251,3.354,3.251,5.728v31.894c0,1.549-0.774,2.322-2.322,2.322s-2.322-0.773-2.322-2.322V86.633h-16.566
		l-0.154,29.416c0,3.511,1.212,6.503,3.638,8.979c2.425,2.477,5.393,3.716,8.902,3.716h13.315c3.507,0,6.476-1.239,8.902-3.716
		c2.424-2.477,3.638-5.469,3.638-8.979V76.569C552.427,70.686,549.846,66.041,544.686,62.635z M587.571,62.635l-10.218-6.656
		c-2.271-1.445-3.406-3.354-3.406-5.729V22.072c0-1.548,0.773-2.322,2.322-2.322c1.548,0,2.322,0.774,2.322,2.322v25.391h16.721
		V18.046c0-3.507-1.215-6.502-3.639-8.979c-2.426-2.477-5.395-3.716-8.902-3.716h-13.314c-3.51,0-6.479,1.239-8.902,3.716
		c-2.426,2.477-3.638,5.472-3.638,8.979l0.154,35.609c0,5.782,2.478,10.374,7.432,13.779l10.528,6.968
		c2.269,1.445,3.405,3.354,3.405,5.728v31.894c0,1.549-0.827,2.322-2.477,2.322c-1.549,0-2.322-0.773-2.322-2.322V86.633h-16.566
		l-0.154,29.416c0,3.511,1.212,6.503,3.638,8.979c2.424,2.477,5.393,3.716,8.902,3.716h13.314c3.508,0,6.477-1.239,8.902-3.716
		c2.424-2.477,3.639-5.469,3.639-8.979V76.569C595.313,70.686,592.731,66.041,587.571,62.635z"/>
</g>
</svg>
