<?xml version="1.0" encoding="utf-8"?>
<!-- Generator: Adobe Illustrator 16.0.0, SVG Export Plug-In . SVG Version: 6.00 Build 0)  -->
<svg version="1.2" baseProfile="tiny" id="Layer_1" xmlns="http://www.w3.org/2000/svg" xmlns:xlink="http://www.w3.org/1999/xlink"
	 x="0px" y="0px" width="1000px" height="1000px" viewBox="0 0 1000 1000" xml:space="preserve">
<g>
	<polygon points="55.993,503.829 59.434,503.829 45.143,535.18 43.991,535.18 29.707,503.829 33.192,503.829 44.571,529.021 	"/>
	<rect x="99.577" y="503.829" width="3.203" height="31.068"/>
	<path d="M144.36,519.313c0-9.272,7.314-15.772,16.104-15.772c5.404,0,9.943,2.39,12.762,6.167l-2.44,1.959
		c-2.102-3.056-5.684-5.067-10.322-5.067c-7.596,0-12.567,5.399-12.567,12.763c0,7.362,4.971,12.762,12.567,12.762
		c4.589,0,8.126-1.966,10.276-4.971l2.391,2.003c-2.819,3.688-7.311,6.023-12.667,6.023
		C151.579,535.18,144.36,528.583,144.36,519.313"/>
	<polygon points="224.655,534.888 221.452,534.888 221.452,506.748 210.557,506.748 210.557,503.829 235.554,503.829 
		235.554,506.748 224.655,506.748 	"/>
	<path d="M301.6,519.362c0-7.363-4.972-12.763-12.572-12.763c-7.597,0-12.567,5.399-12.567,12.763
		c0,7.362,4.971,12.762,12.567,12.762C296.628,532.124,301.6,526.725,301.6,519.362 M272.923,519.362
		c0-9.132,7.122-15.821,16.105-15.821c8.992,0,16.108,6.689,16.108,15.821c0,9.221-7.267,15.817-16.108,15.817
		S272.923,528.583,272.923,519.362"/>
	<path d="M356.27,506.746h-6.35v11.233h6.451c4.923,0,6.74-2.825,6.74-5.739C363.111,509.137,361.103,506.746,356.27,506.746
		 M359.335,520.603l10.039,14.285h-3.826l-9.844-13.993h-5.784v13.993h-3.204v-31.056h10.424c4.726,0,9.313,2.532,9.313,8.408
		C366.453,515.828,364.255,519.552,359.335,520.603"/>
	<rect x="411.617" y="503.829" width="3.205" height="31.068"/>
	<polygon points="461.802,534.888 458.31,534.888 472.651,503.546 473.799,503.546 488.086,534.888 484.599,534.888 473.22,509.706 
			"/>
	<path d="M534.781,531.979h6.45c4.3,0,6.743-2.968,6.743-5.975c0-3.201-2.156-5.731-6.836-5.731h-6.357V531.979z M540.755,506.748
		h-5.974v10.61h5.594c3.3,0,6.401-1.769,6.401-5.405C546.776,508.517,544.01,506.748,540.755,506.748 M531.58,534.888v-31.059h9.224
		c5.973,0,9.363,3.97,9.363,8.124c0,3.014-1.765,6.166-4.776,6.646c3.679,0.667,5.931,3.583,5.931,7.405
		c0,4.349-2.589,8.884-10.903,8.884H531.58z"/>
	<polygon points="616.603,534.888 599.066,534.888 599.066,503.829 616.603,503.829 616.603,506.748 602.268,506.748 
		602.268,517.358 615.552,517.358 615.552,520.272 602.268,520.272 602.268,531.979 616.603,531.979 	"/>
	<path d="M659.519,519.313c0-9.272,7.321-15.772,16.106-15.772c5.404,0,9.942,2.39,12.76,6.167l-2.432,1.959
		c-2.102-3.056-5.692-5.067-10.328-5.067c-7.599,0-12.565,5.399-12.565,12.763c0,7.362,4.967,12.762,12.565,12.762
		c4.587,0,8.125-1.966,10.274-4.971l2.394,2.003c-2.822,3.688-7.313,6.023-12.668,6.023
		C666.738,535.18,659.519,528.583,659.519,519.313"/>
	<polygon points="754.967,534.888 750.851,534.888 736.71,519.79 733.509,522.95 733.509,534.888 730.308,534.888 730.308,503.829 
		733.509,503.829 733.509,518.739 748.56,503.829 752.768,503.829 738.86,517.643 	"/>
	<polygon points="821.874,534.888 818.673,534.888 818.673,520.272 799.749,520.272 799.749,534.888 796.543,534.888 
		796.543,503.829 799.749,503.829 799.749,517.358 818.673,517.358 818.673,503.829 821.874,503.829 	"/>
	<polygon points="867.183,534.888 863.694,534.888 878.035,503.546 879.178,503.546 893.472,534.888 889.978,534.888 
		878.604,509.706 	"/>
	<polygon points="951.063,529.021 961.91,503.542 963.053,503.542 975.77,534.897 972.418,534.897 962.48,509.847 951.729,535.228 
		950.538,535.228 939.688,509.847 929.745,534.897 926.346,534.897 939.066,503.542 940.161,503.542 	"/>
</g>
</svg>
